<?xml version="1.0" encoding="utf-8"?>
<!-- Generator: Adobe Illustrator 16.0.0, SVG Export Plug-In . SVG Version: 6.00 Build 0)  -->
<!DOCTYPE svg PUBLIC "-//W3C//DTD SVG 1.1//EN" "http://www.w3.org/Graphics/SVG/1.1/DTD/svg11.dtd" [
	<!ENTITY ns_flows "http://ns.adobe.com/Flows/1.0/">
	<!ENTITY ns_extend "http://ns.adobe.com/Extensibility/1.0/">
	<!ENTITY ns_ai "http://ns.adobe.com/AdobeIllustrator/10.0/">
	<!ENTITY ns_graphs "http://ns.adobe.com/Graphs/1.0/">
]>
<svg version="1.1" id="Layer_1" xmlns:x="&ns_extend;" xmlns:i="&ns_ai;" xmlns:graph="&ns_graphs;"
	 xmlns="http://www.w3.org/2000/svg" xmlns:xlink="http://www.w3.org/1999/xlink" xmlns:a="http://ns.adobe.com/AdobeSVGViewerExtensions/3.0/"
	 x="0px" y="0px" width="864px" height="864px" viewBox="0 0 864 864" enable-background="new 0 0 864 864" xml:space="preserve">
<path fill-rule="evenodd" clip-rule="evenodd" fill="#D02027" d="M222.593,651.622c-4.62,15.711-13.013,16.684-25.984,4.931
	c-5.924-5.367-10.95-12.153-14.948-19.12c-6.306-10.986-11.244-22.751-17.144-33.984c-1.133-2.156-4.342-5.006-6.055-4.683
	c-3.085,0.582-6.525,2.745-8.45,5.283c-3.813,5.027-6.697,10.76-9.966,16.201c-0.779-0.689-1.557-1.377-2.334-2.065
	c-1.602-12.877-2.217-25.978-5.097-38.562c-2.568-11.214-6.994-22.167-11.994-32.565c-1.54-3.199-7.67-4.191-10.662-5.68
	c-3.919,4.859-6.43,7.971-8.94,11.082c-1.368-2.624-2.139-5.91-4.198-7.77c-15.27-13.788-10.563-32.352-12.542-49.419
	c-0.753-6.501-3.538-12.767-6.281-22.175c-4.575,9.879-2.32,22.021-17.931,16.318c10.301-19.89,20.28-39.157,30.586-59.056
	c-8.224,0-14.977,0.536-21.576-0.239c-3.065-0.359-7.407-2.686-8.328-5.173c-1.109-2.999-0.384-8.035,1.603-10.592
	c9.541-12.28,19.043-23.913,23.629-39.718c3.153-10.866,12.252-20.005,19.251-30.775c-10.838-7.986-16.673,12.589-29.416,8.737
	c20.119-39.65,64.123-49.717,92.09-79.277c-7.605,1.436-15.186,3.837-22.822,4.034c-7.33,0.189-17.725,4.299-19.654-10.075
	c28.008,0.047,49.053-15.886,71.666-28.805c8.733-4.99,19.571-13.339,30.444-2.343c3.385,3.421,6.283,7.324,9.387,11.021
	c12.336,14.697,28.994,22.658,46.285,29.576c6.232,2.493,12.598,4.656,20.7,7.63c-0.505,2.489-1.001,6.353-2.084,10.043
	c-8.084,27.538-9.776,54.905,2.024,81.914c6.105,13.977,10.271,29.436,19.097,41.444c14.788,20.116,33.879,36.296,59.313,42.324
	c9.347,2.214,18.856,4.035,28.396,5.086c20.663,2.275,38.11-7.015,55.289-16.639c46.16-25.859,67.009-96.891,51.059-148.993
	c-1.577-5.149-2.986-10.35-4.874-16.923c14.073-3.704,28.26-6.291,41.493-11.365c7.599-2.915,14.257-9.249,20.246-15.151
	c7.406-7.297,13.229-16.201,20.646-23.484c3.367-3.304,5.596-9.12,14.572-3.102c16.42,11.007,35.422,18.318,53.761,26.213
	c5.213,2.245,11.851,1.176,17.835,1.628c0.112,1.134,0.225,2.267,0.338,3.401c-9.713,2.816-19.427,5.634-32.504,9.427
	c4.8,4.32,8.22,9.608,12.921,11.271c31.94,11.293,55.571,34.105,79.824,56.137c1.449,1.317,2.657,2.94,3.785,4.556
	c0.902,1.291,1.51,2.787,4.199,7.909c-11.763-2.579-20.437-4.481-29.575-6.485c2.203,18.438,14.428,29.206,24.37,41.407
	c13.018,15.974,20.147,34.406,23.819,54.204c-1.061,0.652-2.123,1.306-3.185,1.958c-2.648-3.624-5.261-7.277-7.965-10.863
	c-1.292-1.713-3.153-4.861-4.071-4.631c-2.354,0.593-5.402,2.285-6.21,4.316c-1.339,3.368-2.84,8.388-1.304,10.895
	c8.689,14.187,3.25,28.831,2.021,43.121c-1.647,19.135-4.772,38.143-7.805,61.345c-4.315-7.119-7.377-12.166-12.074-19.912
	c-3.371,4.415-7.644,8.246-9.71,13.03c-7.507,17.385-14.135,35.147-21.451,52.617c-1.354,3.229-4.065,6.077-6.667,8.56
	c-7.487,7.145-12.202,5.397-15.577-5.504c-0.788-0.24-1.574-0.651-2.37-0.674c-2.948-0.08-5.899-0.031-8.209-0.031
	c-8.742,14.835-16.079,29.747-25.735,42.961c-9.271,12.687-20.945,23.613-32.753,36.621c-3.261-8.571-5.21-13.689-7.394-19.431
	c-12.039,10.602-22.86,20.159-33.713,29.678c-8.751,7.674-18.249,13.36-30.614,12.084c-2.88-0.298-6.381-0.483-8.713,0.839
	c-10.452,5.925-19.904,14.387-30.999,18.229c-15.818,5.477-32.683,10.062-49.243,10.598c-13.453,0.435-27.06-5.931-40.717-8.7
	c-5.315-1.077-12.005-2.611-16.265-0.426c-21.367,10.963-36.19-6.843-53.962-11.176c-4.749-1.158-9.118-3.87-14.606-6.283
	c-1.253,5.252-1.991,8.342-2.889,12.104c-21.028,0.779-36.248-12.456-51.809-22.179
	C248.845,678.936,236.872,664.642,222.593,651.622z M125.424,454.989c9.029,3.322,18.518,6.991,28.129,10.306
	c13.98,4.821,29.275,7.451,38.691,20.43c16.228,22.367,31.792,45.218,47.991,67.606c13.266,18.336,25.367,37.948,41.087,53.946
	c15.06,15.329,33.154,28.359,51.729,39.327c14.032,8.284,30.816,15.992,46.564,16.386c28.008,0.697,56.303,4.948,84.573-3.613
	c25.557-7.739,48.109-19.875,67.244-37.472c22.84-21.004,39.629-47.007,55.641-73.647c11.407-18.979,26.337-35.813,39.176-53.971
	c5.541-7.836,12.634-9.026,21.315-8.859c5.882,0.113,12.516-0.37,17.561-2.994c11.926-6.201,23.104-13.84,34.81-21.036
	c2.659,2.534,6.016,5.731,10.091,9.613c1.333-7.045,3.22-12.725,3.267-18.419c0.05-6.195-1.083-12.541-2.645-18.577
	c-2.431-9.388-6.248-17.682-18.638-12.859c-0.312,1.127-0.815,1.958-0.705,2.7c3.984,26.806-9.389,42.201-36.718,42.207
	c-17.174,0.002-34.348,0-51.764,0c1.972,4.616,3.346,7.835,4.721,11.055c-3.432,1.418-6.811,3.882-10.306,4.061
	c-10.551,0.542-21.146,0.195-31.746,0.195c0,3.493,0,6.485,0,11.768c-6.136-2.076-10.872-3.787-15.677-5.277
	c-7.221-2.242-14.37-4.998-21.768-6.317c-9.178-1.637-15.143,3.398-23.095,8.578c-18.254,11.888-41.049,7.538-59.71-0.349
	c-20.427-8.635-40.383-7.124-59.181-2.181c-19.125,5.028-37.629,9.629-57.452,9.187c-21.149-0.473-21.158-0.119-20.661-21.568
	c-21.68,5.595-42.965,11.088-64.592,16.669c-0.834-6.274-1.421-10.684-1.926-14.485c-12.788-1.306-24.559-2.508-37.636-3.844
	c1.151-3.312,2.479-7.137,4.136-11.902c-2.091-1.411-5.057-4.926-8.49-5.467c-14.53-2.289-29.179-3.899-43.823-5.363
	c-14.167-1.416-24.175-10.486-22.631-21.559c0.765-5.488,4.697-12.917-4.076-13.465c-4.519-0.282-12.298,4.846-13.657,9.107
	c-5.199,16.297-9.331,33.199,0.33,51.638C118.591,469.955,121.598,463.37,125.424,454.989z"/>
<path fill-rule="evenodd" clip-rule="evenodd" fill="#FBAA19" d="M406.236,452.545c-15.121-2.835-29.286-11.77-44.658-19.035
	c-27.224-12.869-37.769-38.861-46.347-64.402c-8.746-26.035-8.938-53.23,2.804-79.583c8.603-19.308,18.263-37.306,36.636-49.264
	c17.536-11.414,36.064-22.142,57.336-18.987c20.937,3.104,39.526,10.755,56.708,26.807c25.751,24.058,38.73,52.364,39.149,85.251
	c0.43,33.643-8.635,64.175-36.213,89.529C452.717,440.268,433.833,449.71,406.236,452.545z"/>
<path fill-rule="evenodd" clip-rule="evenodd" fill="#FFFFFF" d="M526.223,80.265c-43.72-10.443-89.798,11.661-109.176,52.588
	c-0.778,1.643-7.069,3.074-12.865,4.505c-14.204-33.989-47.846-58.972-88.893-59.191c-49.469-0.265-91.503,37.182-95.968,85.491
	c-4.768,51.587,28.853,96.617,78.613,105.723c9.559,1.75,15.876,0.663,21.745-8.977c17.479-28.706,43.365-45.524,77.096-50.268
	c1.443-0.203,3.07-0.966,4.622-2.037c6.868,0.985,15.649,2.074,16.361,2.164c33.247,4.17,59.205,21.112,77.035,48.506
	c7.97,12.246,15.713,13.292,27.987,10.745c44.805-9.295,77.6-48.246,78.334-94.012C601.835,130.549,570.636,90.874,526.223,80.265z"
	/>
<g>
	<path fill-rule="evenodd" clip-rule="evenodd" d="M409.934,127.763c15.977-26.903,36.554-45.689,65.45-53.821
		c79.061-22.249,150.885,48.159,130.945,128.587c-1.914,7.723-2.364,12.629,6.204,15.858c26.786,10.097,50.949,27.393,80.931,28.737
		c9.114,0.408,10.085,7.165,7.158,13.732c-2.531,5.677-6.977,10.498-11.56,17.119c3.636,2.923,7.862,6.051,11.785,9.52
		c19.336,17.101,39.22,33.648,57.66,51.669c13.003,12.708,11.606,18.929-2.322,28.917c6.764,15.514,14.208,30.704,19.953,46.514
		c3.119,8.584,3.912,18.17,4.714,27.394c0.716,8.233,2.271,17.915-11.797,16.814c-1.688-0.133-5.108,5.13-5.522,8.188
		c-2.332,17.224-5.308,34.53-5.416,51.826c-0.072,11.455,4.295,22.938,7.26,37.228c-7.054,1.719-15.361,5.479-23.596,5.325
		c-11.142-0.208-15.628,4.443-18.697,14.295c-5.783,18.57-15.461,35.312-31.615,46.568c-6.636,4.623-15.961,5.388-27.614,9.012
		c-7.504,9.598-17.035,24.309-29.099,36.52c-12.36,12.509-26.165,24.577-46.666,20.953c-2.978-0.525-7.061,2.452-9.959,4.685
		c-14.803,11.398-30.679,19.573-50.023,19.306c-3.147-0.043-6.717,1.312-9.422,3.059c-33.678,21.756-69.811,23.677-107.69,14.39
		c-5.803-1.423-12.315-0.236-18.475,0.151c-5.454,0.342-11.163,2.705-16.261,1.685c-47.503-9.501-98.167-7.845-139.415-39.962
		c-5.901-4.593-15.396-4.278-22.792-7.302c-21.219-8.669-36.773-24.198-48.552-43.353c-5.214-8.479-9.406-12.327-19.926-7.049
		c-5.469,2.745-14.346,1.964-20.112-0.669c-2.497-1.14-2.414-11.304-1.097-16.793c3.911-16.295-1.975-29.913-9.256-43.442
		c-0.678,1-1.355,2.001-2.033,3c-6.31-2.704-13.401-4.345-18.788-8.304c-19.08-14.021-24.121-34.947-25.448-56.826
		c-18.563-5.915-19.646-6.055-17.085-25.974c1.798-14.001,7.048-27.558,10.882-41.772c-6.454-4.401-14.866-9.249-22.182-15.402
		c-6.057-5.095-7.234-12.185,0.586-16.917c16.084-9.735,22.293-26.025,29.78-42.672c-13.32-5.708-12.253-17.139-5.834-25.601
		c10.822-14.266,24.018-26.811,36.866-39.417c5.039-4.945,11.829-8.105,17.108-11.603c-4.49-8.729-9.71-16.732-12.494-25.509
		c-0.921-2.903,4.749-11.424,6.875-11.24c30.574,2.636,54.475-13.246,79.223-27.054c7.745-4.321,18.853-6.234,22.761-12.682
		c3.233-5.333-2.203-15.677-3.222-23.873c-6.58-52.921,19.674-97.821,67.321-115.431c46.82-17.303,96.999,0.568,126.099,44.91
		C406.676,122.813,407.831,124.566,409.934,127.763z M222.593,651.622c14.279,13.02,26.251,27.313,41.285,36.706
		c15.561,9.723,30.78,22.958,51.809,22.179c0.898-3.763,1.635-6.853,2.889-12.104c5.488,2.413,9.857,5.125,14.606,6.283
		c17.772,4.333,32.596,22.139,53.962,11.176c4.26-2.186,10.95-0.651,16.265,0.426c13.657,2.77,27.264,9.135,40.717,8.7
		c16.561-0.535,33.425-5.121,49.243-10.598c11.095-3.842,20.547-12.304,30.999-18.229c2.332-1.322,5.833-1.137,8.713-0.839
		c12.365,1.276,21.863-4.41,30.614-12.084c10.853-9.519,21.674-19.076,33.713-29.678c2.184,5.741,4.133,10.859,7.394,19.431
		c11.808-13.008,23.482-23.935,32.753-36.621c9.656-13.214,16.993-28.126,25.735-42.961c2.31,0,5.261-0.049,8.209,0.031
		c0.796,0.022,1.582,0.434,2.368,0.683c3.377,10.893,8.092,12.64,15.579,5.495c2.602-2.482,5.313-5.33,6.667-8.56
		c7.316-17.47,13.944-35.232,21.451-52.617c2.066-4.784,6.339-8.615,9.71-13.03c4.697,7.746,7.759,12.793,12.074,19.912
		c3.032-23.202,6.157-42.21,7.805-61.345c1.229-14.29,6.669-28.935-2.021-43.121c-1.536-2.507-0.035-7.527,1.304-10.895
		c0.808-2.032,3.855-3.723,6.21-4.316c0.918-0.23,2.779,2.917,4.071,4.631c2.704,3.585,5.316,7.239,7.965,10.863
		c1.062-0.652,2.124-1.306,3.185-1.958c-3.672-19.798-10.802-38.23-23.819-54.204c-9.942-12.201-22.167-22.969-24.37-41.407
		c9.139,2.003,17.812,3.906,29.575,6.485c-2.689-5.122-3.297-6.618-4.199-7.909c-1.128-1.616-2.336-3.239-3.785-4.556
		c-24.253-22.032-47.884-44.844-79.824-56.137c-4.701-1.663-8.121-6.951-12.921-11.271c13.077-3.792,22.791-6.61,32.504-9.427
		c-0.113-1.134-0.226-2.267-0.338-3.401c-5.984-0.452-12.622,0.617-17.835-1.628c-18.339-7.895-37.341-15.206-53.761-26.213
		c-8.977-6.019-11.205-0.203-14.572,3.102c-7.418,7.283-13.24,16.188-20.646,23.484c-5.989,5.902-12.647,12.236-20.246,15.151
		c-13.233,5.075-27.42,7.661-41.493,11.365c1.888,6.573,3.297,11.773,4.874,16.923c15.95,52.102-4.898,123.134-51.059,148.993
		c-17.179,9.624-34.626,18.914-55.289,16.639c-9.54-1.051-19.049-2.872-28.396-5.086c-25.435-6.027-44.526-22.208-59.313-42.324
		c-8.826-12.008-12.992-27.467-19.097-41.444c-11.801-27.008-10.108-54.375-2.024-81.914c1.083-3.69,1.579-7.554,2.084-10.043
		c-8.103-2.975-14.468-5.137-20.7-7.63c-17.291-6.918-33.949-14.879-46.285-29.576c-3.104-3.697-6.002-7.6-9.387-11.021
		c-10.873-10.997-21.711-2.647-30.444,2.343c-22.613,12.919-43.658,28.853-71.666,28.805c1.93,14.374,12.324,10.264,19.654,10.075
		c7.636-0.196,15.217-2.598,22.822-4.034c-27.967,29.56-71.972,39.627-92.09,79.277c12.743,3.853,18.578-16.723,29.416-8.737
		c-7,10.77-16.098,19.91-19.251,30.775c-4.586,15.806-14.088,27.438-23.629,39.718c-1.987,2.557-2.712,7.593-1.603,10.592
		c0.92,2.487,5.263,4.813,8.328,5.173c6.599,0.775,13.353,0.239,21.576,0.239c-10.306,19.899-20.285,39.167-30.586,59.056
		c15.611,5.702,13.356-6.439,17.931-16.318c2.743,9.408,5.527,15.674,6.281,22.175c1.979,17.067-2.728,35.631,12.542,49.419
		c2.059,1.859,2.83,5.146,4.198,7.77c2.51-3.111,5.021-6.223,8.94-11.082c2.992,1.488,9.122,2.48,10.662,5.68
		c5,10.398,9.426,21.352,11.994,32.565c2.88,12.584,3.495,25.685,5.097,38.562c0.777,0.688,1.555,1.376,2.334,2.065
		c3.269-5.441,6.153-11.174,9.966-16.201c1.925-2.538,5.365-4.701,8.45-5.283c1.712-0.323,4.922,2.526,6.055,4.683
		c5.9,11.233,10.838,22.998,17.144,33.984c3.998,6.967,9.024,13.753,14.948,19.12C209.58,668.306,217.974,667.333,222.593,651.622z
		 M406.236,450.545c28.514-0.458,46.48-10.277,65.415-27.684c27.578-25.354,36.643-55.886,36.213-89.529
		c-0.419-32.887-13.398-61.193-39.149-85.251c-17.183-16.052-35.771-23.704-56.708-26.807c-21.272-3.155-39.8,7.573-57.336,18.987
		c-18.373,11.958-28.033,29.957-36.636,49.264c-11.742,26.352-11.549,53.547-2.804,79.583c8.579,25.541,19.124,51.534,46.347,64.402
		C376.95,440.775,391.002,450.59,406.236,450.545z M315.288,78.167c-49.469-0.265-91.503,37.182-95.968,85.491
		c-4.768,51.587,28.853,96.617,78.613,105.723c9.559,1.75,15.876,0.663,21.745-8.977c17.479-28.706,43.365-45.524,77.096-50.268
		c4.039-0.568,9.538-5.48,10.714-9.457C425.601,139.455,379.502,78.51,315.288,78.167z M414.064,208.513
		c1.503,0.733,2.553,1.606,3.693,1.75c33.247,4.17,59.205,21.112,77.035,48.506c7.97,12.246,15.713,13.292,27.987,10.745
		c44.805-9.295,77.6-48.246,78.334-94.012c0.721-44.953-30.479-84.628-74.892-95.237c-43.72-10.443-89.798,11.661-109.176,52.588
		c-1.508,3.186-2.926,7.412-2.095,10.548C420.729,165.204,420.055,186.83,414.064,208.513z"/>
	<path fill-rule="evenodd" clip-rule="evenodd" d="M125.424,454.989c-3.826,8.381-6.833,14.966-9.839,21.553
		c-9.661-18.439-5.529-35.341-0.33-51.638c1.359-4.261,9.138-9.39,13.657-9.107c8.773,0.548,4.841,7.977,4.076,13.465
		c-1.543,11.073,8.464,20.143,22.631,21.559c14.645,1.464,29.293,3.074,43.823,5.363c3.433,0.541,6.399,4.056,8.49,5.467
		c-1.656,4.766-2.984,8.591-4.136,11.902c13.077,1.336,24.848,2.538,37.636,3.844c0.505,3.802,1.092,8.211,1.926,14.485
		c21.627-5.581,42.912-11.074,64.592-16.669c-0.497,21.449-0.488,21.096,20.661,21.568c19.823,0.442,38.327-4.158,57.452-9.187
		c18.798-4.943,38.753-6.454,59.181,2.181c18.661,7.887,41.456,12.236,59.71,0.349c7.952-5.18,13.917-10.215,23.095-8.578
		c7.397,1.319,14.547,4.075,21.768,6.317c4.805,1.49,9.541,3.201,15.677,5.277c0-5.282,0-8.274,0-11.768
		c10.6,0,21.195,0.347,31.746-0.195c3.495-0.179,6.874-2.643,10.306-4.061c-1.375-3.22-2.749-6.438-4.721-11.055
		c17.416,0,34.59,0.002,51.764,0c27.329-0.006,40.702-15.401,36.718-42.207c-0.11-0.741,0.394-1.573,0.705-2.7
		c12.39-4.823,16.207,3.471,18.638,12.859c1.562,6.036,2.694,12.382,2.645,18.577c-0.047,5.694-1.934,11.374-3.267,18.419
		c-4.075-3.882-7.432-7.079-10.091-9.613c-11.706,7.196-22.884,14.835-34.81,21.036c-5.045,2.624-11.679,3.107-17.561,2.994
		c-8.682-0.167-15.774,1.023-21.315,8.859c-12.839,18.157-27.769,34.991-39.176,53.971c-16.012,26.641-32.801,52.644-55.641,73.647
		c-19.135,17.597-41.688,29.732-67.244,37.472c-28.271,8.562-56.565,4.311-84.573,3.613c-15.748-0.394-32.532-8.102-46.564-16.386
		c-18.575-10.968-36.669-23.998-51.729-39.327c-15.72-15.998-27.822-35.61-41.087-53.946
		c-16.199-22.389-31.764-45.239-47.991-67.606c-9.416-12.979-24.71-15.608-38.691-20.43
		C143.942,461.98,134.454,458.312,125.424,454.989z"/>
	<path fill-rule="evenodd" clip-rule="evenodd" d="M329.942,139.432c21.587-0.108,38.712,17.087,38.589,38.745
		c-0.118,20.816-17.403,37.925-38.229,37.842c-21.288-0.084-39.163-17.943-38.849-38.814
		C291.766,156.451,309.001,139.537,329.942,139.432z"/>
	<path fill-rule="evenodd" clip-rule="evenodd" d="M453.957,177.265c-0.059-21.04,16.623-38.462,37.25-38.905
		c20.953-0.449,39.089,17.288,39.345,38.483c0.254,20.904-17.898,38.988-38.931,38.782
		C470.75,215.422,454.018,198.38,453.957,177.265z"/>
</g>
</svg>
